<svg width="32" height="32" viewBox="0 0 32 32" fill="none" xmlns="http://www.w3.org/2000/svg">
<g filter="url(#filter0_d)">
<path d="M15.6907 9.63483L8.22257 15.7857V22.4242C8.22257 22.5961 8.29085 22.761 8.41239 22.8825C8.53394 23.0041 8.69878 23.0723 8.87067 23.0723L13.4098 23.0606C13.5811 23.0597 13.7451 22.9911 13.866 22.8696C13.9868 22.7482 14.0546 22.5838 14.0546 22.4125V18.5357C14.0546 18.3638 14.1229 18.1989 14.2445 18.0774C14.366 17.9558 14.5309 17.8876 14.7027 17.8876H17.2951C17.467 17.8876 17.6319 17.9558 17.7534 18.0774C17.875 18.1989 17.9432 18.3638 17.9432 18.5357V22.4097C17.943 22.4949 17.9595 22.5794 17.992 22.6583C18.0244 22.7372 18.0721 22.8088 18.1323 22.8692C18.1925 22.9296 18.2641 22.9776 18.3428 23.0103C18.4216 23.043 18.5061 23.0598 18.5913 23.0598L23.1288 23.0723C23.3007 23.0723 23.4656 23.0041 23.5871 22.8825C23.7086 22.761 23.7769 22.5961 23.7769 22.4242V15.7812L16.3104 9.63483C16.2227 9.56408 16.1133 9.52549 16.0006 9.52549C15.8878 9.52549 15.7785 9.56408 15.6907 9.63483ZM27.4873 13.8155L24.101 11.0242V5.41369C24.101 5.28477 24.0498 5.16114 23.9586 5.06998C23.8675 4.97882 23.7438 4.92761 23.6149 4.92761H21.3466C21.2176 4.92761 21.094 4.97882 21.0029 5.06998C20.9117 5.16114 20.8605 5.28477 20.8605 5.41369V8.35484L17.234 5.37115C16.8859 5.08477 16.4492 4.92818 15.9985 4.92818C15.5478 4.92818 15.1111 5.08477 14.7631 5.37115L4.50978 13.8155C4.46056 13.8562 4.41984 13.9061 4.38994 13.9626C4.36004 14.019 4.34156 14.0807 4.33554 14.1443C4.32952 14.2079 4.33609 14.272 4.35486 14.3331C4.37364 14.3941 4.40426 14.4508 4.44497 14.5L5.47787 15.7557C5.51847 15.8051 5.56841 15.846 5.62483 15.876C5.68125 15.906 5.74304 15.9247 5.80666 15.9308C5.87028 15.9369 5.93449 15.9305 5.99561 15.9117C6.05672 15.893 6.11355 15.8624 6.16283 15.8217L15.6907 7.97408C15.7785 7.90333 15.8878 7.86474 16.0006 7.86474C16.1133 7.86474 16.2227 7.90333 16.3104 7.97408L25.8387 15.8217C25.8879 15.8624 25.9446 15.8931 26.0057 15.9118C26.0667 15.9306 26.1308 15.9372 26.1944 15.9312C26.258 15.9252 26.3197 15.9067 26.3762 15.8768C26.4326 15.8469 26.4826 15.8061 26.5232 15.7569L27.5562 14.5012C27.5968 14.4518 27.6273 14.3947 27.6459 14.3334C27.6644 14.2721 27.6707 14.2078 27.6643 14.144C27.6579 14.0803 27.6389 14.0185 27.6086 13.9621C27.5782 13.9057 27.537 13.8559 27.4873 13.8155Z" fill="white"/>
</g>
<defs>
<filter id="filter0_d" x="-2" y="0" width="36" height="36" filterUnits="userSpaceOnUse" color-interpolation-filters="sRGB">
<feFlood flood-opacity="0" result="BackgroundImageFix"/>
<feColorMatrix in="SourceAlpha" type="matrix" values="0 0 0 0 0 0 0 0 0 0 0 0 0 0 0 0 0 0 127 0"/>
<feOffset dy="4"/>
<feGaussianBlur stdDeviation="2"/>
<feColorMatrix type="matrix" values="0 0 0 0 0 0 0 0 0 0 0 0 0 0 0 0 0 0 0.5 0"/>
<feBlend mode="normal" in2="BackgroundImageFix" result="effect1_dropShadow"/>
<feBlend mode="normal" in="SourceGraphic" in2="effect1_dropShadow" result="shape"/>
</filter>
</defs>
</svg>
