<svg width="28" height="33" viewBox="0 0 28 33" fill="none" xmlns="http://www.w3.org/2000/svg">
<g filter="url(#filter0_d)">
<path d="M10.5365 21.6667H11.4479V15.0834H10.5365C10.0331 15.0834 9.625 14.6753 9.625 14.1719V11.9948C9.625 11.4914 10.0331 11.0834 10.5365 11.0834H15.6406C16.144 11.0834 16.5521 11.4914 16.5521 11.9948V21.6667H17.4635C17.9669 21.6667 18.375 22.0748 18.375 22.5782V24.7552C18.375 25.2586 17.9669 25.6667 17.4635 25.6667H10.5365C10.0331 25.6667 9.625 25.2586 9.625 24.7552V22.5782C9.625 22.0748 10.0331 21.6667 10.5365 21.6667ZM14 2.33337C12.1878 2.33337 10.7188 3.80242 10.7188 5.61462C10.7188 7.42683 12.1878 8.89587 14 8.89587C15.8122 8.89587 17.2812 7.42683 17.2812 5.61462C17.2812 3.80242 15.8122 2.33337 14 2.33337Z" fill="white"/>
</g>
<defs>
<filter id="filter0_d" x="-4" y="0" width="36" height="36" filterUnits="userSpaceOnUse" color-interpolation-filters="sRGB">
<feFlood flood-opacity="0" result="BackgroundImageFix"/>
<feColorMatrix in="SourceAlpha" type="matrix" values="0 0 0 0 0 0 0 0 0 0 0 0 0 0 0 0 0 0 127 0"/>
<feOffset dy="4"/>
<feGaussianBlur stdDeviation="2"/>
<feColorMatrix type="matrix" values="0 0 0 0 0 0 0 0 0 0 0 0 0 0 0 0 0 0 0.5 0"/>
<feBlend mode="normal" in2="BackgroundImageFix" result="effect1_dropShadow"/>
<feBlend mode="normal" in="SourceGraphic" in2="effect1_dropShadow" result="shape"/>
</filter>
</defs>
</svg>
