<svg width="50" height="50" viewBox="0 0 50 50" fill="none" xmlns="http://www.w3.org/2000/svg">
<path d="M37.4603 0H12.5C5.63492 0 0 5.63492 0 12.5397V37.5C0 44.3651 5.63492 50 12.5 50H37.4603C44.3651 50 50 44.3651 50 37.4603V12.5397C50 5.63492 44.3651 0 37.4603 0ZM27.5 31.9444C25.5159 31.9444 23.6111 30.9127 22.9762 29.7222C22.9762 29.7222 21.9048 33.8492 21.6667 34.6429C20.873 37.4603 18.4921 40.2778 18.3333 40.5159C18.2143 40.6746 17.9365 40.6349 17.8968 40.3968C17.8571 40.0397 17.2619 36.4683 17.9365 33.5714C18.2937 32.1032 20.3175 23.8095 20.3175 23.8095C20.3175 23.8095 19.7222 22.6587 19.7222 20.9921C19.7222 18.3333 21.3095 16.3492 23.2937 16.3492C24.9603 16.3492 25.7937 17.5794 25.7937 19.0476C25.7937 20.6746 24.7222 23.1349 24.1667 25.3968C23.6905 27.3016 25.1587 28.8492 27.1032 28.8492C30.5952 28.8492 32.9762 24.4841 32.9762 19.3254C32.9762 15.3968 30.2381 12.4603 25.2778 12.4603C19.6825 12.4603 16.1508 16.5079 16.1508 21.0317C16.1508 22.5794 16.627 23.6905 17.381 24.5635C17.7381 24.9603 17.7778 25.119 17.6587 25.5556C17.5794 25.873 17.381 26.6667 17.2619 26.9841C17.1429 27.4206 16.746 27.619 16.3492 27.4206C13.7698 26.3889 12.5794 23.6508 12.5794 20.5556C12.5794 15.4762 17.0238 9.36508 25.7937 9.36508C32.8571 9.36508 37.5 14.3254 37.5 19.6429C37.4603 26.7063 33.4524 31.9444 27.5 31.9444Z" fill="url(#paint0_linear)"/>
<defs>
<linearGradient id="paint0_linear" x1="25" y1="0" x2="25" y2="50" gradientUnits="userSpaceOnUse">
<stop stop-color="#013949"/>
<stop offset="1" stop-color="#AE6651"/>
</linearGradient>
</defs>
</svg>
