<svg width="50" height="50" viewBox="0 0 50 50" fill="none" xmlns="http://www.w3.org/2000/svg">
<g clip-path="url(#clip0)">
<path d="M47.2495 2.7504C45.4165 0.916914 43.208 0 40.6258 0H9.37555C6.79332 0 4.58484 0.916914 2.75101 2.7504C0.917525 4.58423 0.000610352 6.7926 0.000610352 9.37494V40.6248C0.000610352 43.2069 0.917525 45.4155 2.75101 47.2494C4.58484 49.0832 6.79332 50.0001 9.37555 50.0001H40.6254C43.2077 50.0001 45.4162 49.0832 47.2492 47.2494C49.083 45.4155 49.9999 43.2071 49.9999 40.6248V9.37494C49.9998 6.7926 49.0829 4.58389 47.2495 2.7504ZM38.2492 19.2384C38.271 19.4338 38.2821 19.7262 38.2821 20.1175C38.2821 21.9405 38.016 23.7689 37.4845 25.6021C36.9531 27.4363 36.1391 29.1941 35.0428 30.8758C33.9475 32.5574 32.64 34.0444 31.1211 35.3355C29.6018 36.6262 27.7792 37.6575 25.652 38.4273C23.5258 39.1983 21.2468 39.5837 18.8164 39.5837C15.0407 39.5837 11.5468 38.5631 8.33482 36.524C8.85564 36.5888 9.39847 36.6215 9.96239 36.6215C13.1092 36.6215 15.9413 35.645 18.4587 33.6913C16.9833 33.6702 15.6647 33.2148 14.5038 32.3241C13.3425 31.4345 12.5344 30.3062 12.0785 28.9389C12.6426 29.0256 13.0657 29.0685 13.3477 29.0685C13.8251 29.0685 14.3787 28.9819 15.0078 28.8087C13.4237 28.5044 12.0892 27.7185 11.0042 26.4489C9.91884 25.1792 9.37635 23.7308 9.37635 22.1033V22.0382C10.5262 22.5804 11.6113 22.8624 12.6314 22.8844C10.6565 21.5604 9.66914 19.6618 9.66914 17.1879C9.66914 15.9725 9.9836 14.8224 10.613 13.7373C12.3272 15.8425 14.4109 17.5241 16.8629 18.7827C19.315 20.0412 21.9411 20.7469 24.7404 20.8986C24.6321 20.4863 24.5777 19.9653 24.5777 19.3362C24.5777 17.4478 25.2451 15.8368 26.5798 14.502C27.9142 13.1673 29.5257 12.4998 31.4134 12.4998C33.4104 12.4998 35.0709 13.2161 36.3945 14.6485C37.892 14.3664 39.3466 13.8128 40.7568 12.9884C40.2144 14.659 39.2047 15.9287 37.7297 16.7968C39.1398 16.6011 40.4524 16.2324 41.6674 15.6899C40.7561 17.0788 39.6164 18.2614 38.2492 19.2384Z" fill="url(#paint0_linear)"/>
</g>
<defs>
<linearGradient id="paint0_linear" x1="25.0003" y1="0" x2="25.0003" y2="50.0001" gradientUnits="userSpaceOnUse">
<stop stop-color="#013949"/>
<stop offset="1" stop-color="#AE6651"/>
</linearGradient>
<clipPath id="clip0">
<rect width="50" height="50" fill="white"/>
</clipPath>
</defs>
</svg>
